<svg xmlns="http://www.w3.org/2000/svg" xmlns:xlink="http://www.w3.org/1999/xlink" viewBox="0 0 500 500"><defs><style>.cls-1{fill:none;}.cls-2{clip-path:url(#clip-path);}.cls-3{fill:url(#linear-gradient);}</style><clipPath id="clip-path" transform="translate(11.5 -0.51)"><path class="cls-1" d="M238,0C368-1.23,487.91,116.56,488,250c.11,151.24-153.8,265-250,250-37.94-5.92-74.66-33.07-72-49,3.31-19.78,65.1-8.71,134-51,21-12.89,56.86-34.9,74-76,23.61-56.62,10.61-146.8-57-184-44-24.23-106.63-23.46-141,8-40,36.64-14.64,90.09-60,125-23.51,18.09-61,27.36-86,12C.22,266.69,0,220.58,0,212-.36,123.12,107,1.26,238,0Z"/></clipPath><linearGradient id="linear-gradient" y1="250" x2="500" y2="250" gradientUnits="userSpaceOnUse"><stop offset="0" stop-color="#0075be"/><stop offset="0.99" stop-color="#005b97"/></linearGradient></defs><g id="Layer_2" data-name="Layer 2"><g id="Layer_1-2" data-name="Layer 1"><g class="cls-2"><circle class="cls-3" cx="250" cy="250" r="250"/></g></g></g></svg>